<svg width="125" height="124" viewBox="0 0 125 124" fill="none" xmlns="http://www.w3.org/2000/svg">
<g filter="url(#filter0_d_221_7784)">
<rect x="7" y="2" width="111" height="110" rx="40" fill="#0A1551"/>
</g>
<path d="M48.4403 85.1583C49.6863 86.3533 48.8059 88.4005 47.0359 88.4005H35.9625C33.7778 88.4005 32 86.696 32 84.6008V73.9817C32 72.2848 34.1349 71.441 35.381 72.6352L48.4403 85.1583Z" fill="white"/>
<path d="M65.7494 86.0813C62.4722 82.8597 62.4722 77.6373 65.7494 74.4157L77.5795 62.7905C80.8567 59.5689 86.1712 59.5689 89.4492 62.7905C92.7272 66.0113 92.7272 71.2345 89.4492 74.4553L77.6199 86.0813C74.3419 89.3021 69.0274 89.3021 65.7494 86.0813Z" fill="white"/>
<path d="M34.4965 56.8691C31.2186 53.6482 31.2186 48.4251 34.4965 45.2042L52.2752 27.7321C55.5532 24.5105 60.8677 24.5105 64.1456 27.7321C67.4229 30.953 67.4229 36.1761 64.1456 39.397L46.3666 56.8691C43.0886 60.0907 37.7743 60.0907 34.4965 56.8691Z" fill="white"/>
<path d="M50.7724 70.8232C47.4945 67.6016 47.4945 62.3792 50.7724 59.1576L77.6718 32.7228C80.9497 29.5012 86.2643 29.5012 89.5422 32.7228C92.8194 35.9437 92.8194 41.1668 89.5422 44.3877L62.6429 70.8232C59.3649 74.0448 54.0504 74.0448 50.7724 70.8232Z" fill="white"/>
<defs>
<filter id="filter0_d_221_7784" x="0.6" y="0.6" width="123.8" height="122.8" filterUnits="userSpaceOnUse" color-interpolation-filters="sRGB">
<feFlood flood-opacity="0" result="BackgroundImageFix"/>
<feColorMatrix in="SourceAlpha" type="matrix" values="0 0 0 0 0 0 0 0 0 0 0 0 0 0 0 0 0 0 127 0" result="hardAlpha"/>
<feOffset dy="5"/>
<feGaussianBlur stdDeviation="3.2"/>
<feComposite in2="hardAlpha" operator="out"/>
<feColorMatrix type="matrix" values="0 0 0 0 0 0 0 0 0 0 0 0 0 0 0 0 0 0 0.25 0"/>
<feBlend mode="normal" in2="BackgroundImageFix" result="effect1_dropShadow_221_7784"/>
<feBlend mode="normal" in="SourceGraphic" in2="effect1_dropShadow_221_7784" result="shape"/>
</filter>
</defs>
</svg>
