<svg width="124" height="124" viewBox="0 0 124 124" fill="none" xmlns="http://www.w3.org/2000/svg">
<g filter="url(#filter0_d_91_6845)">
<rect x="6.41455" y="1.91455" width="111" height="110" rx="40" fill="#F8761F"/>
</g>
<path d="M89.2718 56.0575C87.7942 53.5844 85.7159 51.6018 83.1175 50.1092C81.1757 49.0095 79.1622 48.3116 76.8933 48.0118V40.1537C79.1622 39.2165 80.5703 37.1421 80.5703 34.722C80.5703 31.4233 77.8512 28.7503 74.4632 28.7503C71.0725 28.7503 68.3058 31.4233 68.3058 34.722C68.3058 37.1421 69.6327 39.2165 71.9016 40.1537V48.0153C70.0865 48.2705 68.2041 48.821 66.4852 49.6669C62.9742 47.0728 51.4616 38.5627 44.7269 33.5922C44.8866 33.032 45.0096 32.4546 45.0096 31.8454C45.0096 28.1918 41.9683 25.2305 38.2114 25.2305C34.4545 25.2305 31.4146 28.1918 31.4146 31.8454C31.4146 35.4985 34.4577 38.4607 38.2146 38.4607C39.4961 38.4607 40.6814 38.0961 41.7042 37.4966L43.1255 38.5455L62.6547 52.2344C61.6224 53.1566 60.6608 54.2056 59.8916 55.3825C58.3329 57.7819 57.3804 60.4218 57.3804 63.3015V63.9023C57.3804 65.9238 57.7752 67.8322 58.4477 69.625C59.0399 71.1905 59.9057 72.6137 60.978 73.9006L54.4965 80.2215C53.5572 79.8814 52.5371 79.8116 51.5581 80.0204C50.579 80.2293 49.6826 80.708 48.9757 81.3993C48.4864 81.8731 48.0985 82.4366 47.8346 83.0572C47.5707 83.6779 47.436 84.3433 47.4383 85.0149C47.4388 86.3804 47.9856 87.6637 48.9785 88.6292C49.4651 89.1056 50.0441 89.4834 50.6819 89.7406C51.3197 89.9978 52.0037 90.1293 52.6941 90.1275C53.3847 90.1292 54.0688 89.9977 54.7068 89.7405C55.3449 89.4833 55.9241 89.1056 56.4111 88.6292C56.9002 88.1555 57.2879 87.5921 57.5519 86.9718C57.816 86.3514 57.9511 85.6863 57.9494 85.0149C57.9494 84.4865 57.8655 83.9709 57.7076 83.4808L64.4068 76.9626C65.3253 77.5798 66.3173 78.0994 67.3837 78.5475C69.487 79.4322 71.8086 79.9712 74.3494 79.9712H74.8149C77.6239 79.9712 80.2736 79.3293 82.7644 78.0164C85.3891 76.6289 87.4434 74.7314 88.9954 72.3091C90.5555 69.8802 91.4145 67.1965 91.4145 64.244V64.0966C91.4145 61.1922 90.7234 58.5125 89.2718 56.0575ZM81.0863 69.731C79.268 71.6968 77.1778 72.9078 74.8149 72.9078H74.4256C73.076 72.9078 71.7559 72.5449 70.4636 71.8849C69.0069 71.1582 67.8996 70.1217 66.9934 68.8092C66.0568 67.521 65.5486 66.1145 65.5486 64.6232V64.1703C65.5486 62.7042 65.8376 61.314 66.5664 60.0011C67.3456 58.5659 68.3979 57.4499 69.7974 56.5625C71.1715 55.6814 72.639 55.2492 74.2736 55.2492H74.4256C75.9077 55.2492 77.3108 55.5335 78.6349 56.1926C79.9841 56.8954 81.0863 57.8556 81.9408 59.1186C82.7708 60.3821 83.2645 61.7449 83.4233 63.2295C83.4483 63.5381 83.461 63.8542 83.461 64.1562C83.461 66.171 82.6696 68.0371 81.0863 69.731Z" fill="white"/>
<defs>
<filter id="filter0_d_91_6845" x="0.0145507" y="0.514551" width="123.8" height="122.8" filterUnits="userSpaceOnUse" color-interpolation-filters="sRGB">
<feFlood flood-opacity="0" result="BackgroundImageFix"/>
<feColorMatrix in="SourceAlpha" type="matrix" values="0 0 0 0 0 0 0 0 0 0 0 0 0 0 0 0 0 0 127 0" result="hardAlpha"/>
<feOffset dy="5"/>
<feGaussianBlur stdDeviation="3.2"/>
<feComposite in2="hardAlpha" operator="out"/>
<feColorMatrix type="matrix" values="0 0 0 0 0 0 0 0 0 0 0 0 0 0 0 0 0 0 0.25 0"/>
<feBlend mode="normal" in2="BackgroundImageFix" result="effect1_dropShadow_91_6845"/>
<feBlend mode="normal" in="SourceGraphic" in2="effect1_dropShadow_91_6845" result="shape"/>
</filter>
</defs>
</svg>
