<svg width="125" height="124" viewBox="0 0 125 124" fill="none" xmlns="http://www.w3.org/2000/svg">
<g filter="url(#filter0_d_201_7675)">
<rect x="7" y="2" width="111" height="110" rx="40" fill="#007392"/>
</g>
<path d="M87.2662 71.8676C84.0017 71.7903 81.4716 72.1002 79.3496 72.9522C78.7374 73.1844 77.7579 73.1846 77.6763 73.9206C78.0028 74.2305 78.0436 74.7341 78.3293 75.1599C78.8195 75.9344 79.6759 76.9803 80.4513 77.5228C81.3081 78.1424 82.1654 78.762 83.0628 79.3043C84.6545 80.2339 86.4502 80.776 88.0009 81.7057C88.899 82.2475 89.7961 82.9452 90.694 83.5261C91.1429 83.8355 91.4284 84.3395 92 84.533V84.417C91.7141 84.0681 91.6325 83.5648 91.347 83.1774C90.9394 82.7901 90.5308 82.4414 90.1226 82.0541C88.9393 80.5438 87.4703 79.2268 85.8789 78.1424C84.5731 77.2902 81.7163 76.1283 81.1859 74.6951C81.1859 74.6951 81.1449 74.6566 81.1043 74.6179C82.0019 74.5404 83.0628 74.2305 83.9201 73.9981C85.3075 73.6492 86.5724 73.7269 88.0009 73.3783C88.6536 73.2234 89.3066 73.0297 89.9594 72.836V72.4876C89.2252 71.7903 88.6947 70.8609 87.9192 70.2024C85.8381 68.4978 83.5526 66.8326 81.1859 65.4383C79.9208 64.6636 78.2883 64.16 76.9417 63.5017C76.4524 63.2691 75.6359 63.1531 75.3505 62.7657C74.6156 61.9137 74.2075 60.7906 73.6772 59.7835C72.4941 57.653 71.3511 55.2905 70.3308 53.0443C69.5967 51.5336 69.1477 50.0229 68.2499 48.6288C64.0467 42.0443 59.4762 38.0549 52.4574 34.1428C50.9473 33.3296 49.1518 32.981 47.2339 32.5551C46.2141 32.5161 45.1935 32.4389 44.1735 32.3999C43.5205 32.1288 42.8675 31.393 42.2961 31.0444C39.9705 29.6499 33.9713 26.6291 32.2575 30.6185C31.1555 33.1359 33.8899 35.6146 34.8282 36.8931C35.5224 37.7838 36.4198 38.7907 36.9096 39.7978C37.1953 40.4559 37.2767 41.1536 37.5623 41.8506C38.2156 43.5544 38.8273 45.4527 39.6846 47.0408C40.1335 47.8541 40.623 48.706 41.1944 49.442C41.5209 49.8679 42.092 50.0618 42.2147 50.7588C41.6436 51.5336 41.6025 52.6956 41.2758 53.6638C39.8068 58.0406 40.3784 63.463 42.4593 66.6776C43.1121 67.6456 44.663 69.7765 46.7442 68.9628C48.5807 68.2658 48.1726 66.0581 48.7027 64.1215C48.8256 63.6562 48.744 63.3467 48.9886 63.0369V63.1146C49.56 64.1987 50.1311 65.2448 50.6617 66.3292C51.9268 68.2268 54.1302 70.2024 55.9665 71.5194C56.9463 72.2162 57.7215 73.417 58.9458 73.8431V73.7267H58.864C58.6191 73.3781 58.2518 73.2234 57.9255 72.952C57.1911 72.2552 56.3747 71.403 55.8035 70.6283C54.0899 68.459 52.5796 66.0578 51.233 63.5789C50.5803 62.3786 50.0087 61.0615 49.4783 59.8609C49.2332 59.3957 49.2332 58.6989 48.8253 58.4667C48.2132 59.3186 47.3155 60.0546 46.8666 61.1003C46.0916 62.7657 46.0098 64.8185 45.7241 66.9485C45.5608 66.9877 45.6422 66.9485 45.5606 67.0265C44.2551 66.7161 43.8061 65.4383 43.3162 64.3537C42.0918 61.6038 41.8877 57.1884 42.9491 54.0125C43.2348 53.199 44.4591 50.6429 43.9694 49.8681C43.7245 49.1321 42.908 48.706 42.4593 48.1252C41.929 47.3892 41.3574 46.46 40.9903 45.6463C40.0108 43.4773 39.5211 41.0759 38.4602 38.9069C37.9705 37.8998 37.1139 36.8543 36.4198 35.9247C35.6446 34.879 34.7876 34.1428 34.1754 32.9035C33.9716 32.4776 33.6856 31.7804 34.0121 31.3155C34.0938 31.0056 34.2568 30.8896 34.5835 30.8122C35.1141 30.3859 36.6241 30.9282 37.1542 31.1606C38.6643 31.7412 39.9292 32.2839 41.1944 33.0972C41.7655 33.4845 42.3777 34.2205 43.1121 34.4142H43.9692C45.2752 34.6851 46.7439 34.4917 47.9683 34.8401C50.1313 35.4984 52.0899 36.4668 53.8448 37.5126C59.1907 40.7273 63.5975 45.2977 66.5768 50.7588C67.0665 51.6493 67.2704 52.4632 67.7193 53.3925C68.5766 55.2905 69.6375 57.2271 70.4941 59.0862C71.3511 60.9064 72.1671 62.7657 73.3915 64.2764C74.0037 65.0894 76.4519 65.5158 77.5539 65.9418C78.3701 66.2902 79.6353 66.6004 80.3697 67.0262C81.7571 67.8393 83.1445 68.7694 84.4504 69.6599C85.1034 70.1247 87.1436 71.0931 87.2662 71.8676Z" fill="white"/>
<path d="M46.5627 37.5747C45.7176 37.5747 45.1211 37.6696 44.5244 37.811V37.9054H44.6239C45.022 38.6605 45.7176 39.1797 46.2146 39.8402C46.6127 40.5951 46.9605 41.3506 47.3586 42.1057C47.4081 42.0583 47.4578 42.0113 47.4578 42.0113C48.1543 41.5391 48.5021 40.7842 48.5021 39.6514C48.2037 39.3213 48.154 38.9909 47.9053 38.6605C47.6073 38.1883 46.9605 37.9526 46.5627 37.5747Z" fill="white"/>
<defs>
<filter id="filter0_d_201_7675" x="0.6" y="0.6" width="123.8" height="122.8" filterUnits="userSpaceOnUse" color-interpolation-filters="sRGB">
<feFlood flood-opacity="0" result="BackgroundImageFix"/>
<feColorMatrix in="SourceAlpha" type="matrix" values="0 0 0 0 0 0 0 0 0 0 0 0 0 0 0 0 0 0 127 0" result="hardAlpha"/>
<feOffset dy="5"/>
<feGaussianBlur stdDeviation="3.2"/>
<feComposite in2="hardAlpha" operator="out"/>
<feColorMatrix type="matrix" values="0 0 0 0 0 0 0 0 0 0 0 0 0 0 0 0 0 0 0.25 0"/>
<feBlend mode="normal" in2="BackgroundImageFix" result="effect1_dropShadow_201_7675"/>
<feBlend mode="normal" in="SourceGraphic" in2="effect1_dropShadow_201_7675" result="shape"/>
</filter>
</defs>
</svg>
